HIERARCHY
ROOT Hips
{
	OFFSET -0.001795 -0.223333 0.028219
	CHANNELS 6 Xposition Yposition Zposition Zrotation Yrotation Xrotation 
	JOINT LeftUpLeg
	{
		OFFSET 0.069520 -0.091406 -0.006815
		CHANNELS 3 Zrotation Yrotation Xrotation
		JOINT LeftLeg
		{
			OFFSET 0.034277 -0.375199 -0.004496
			CHANNELS 3 Zrotation Yrotation Xrotation
			JOINT LeftFoot
			{
				OFFSET -0.013596 -0.397961 -0.043693
				CHANNELS 3 Zrotation Yrotation Xrotation
				JOINT LeftToe
				{
					OFFSET 0.026358 -0.055791 0.119288
					CHANNELS 3 Zrotation Yrotation Xrotation
					End Site
					{
						OFFSET 0.000000 0.000000 0.000000
					}
				}
			}
		}
	}
	JOINT RightUpLeg
	{
		OFFSET -0.067670 -0.090522 -0.004320
		CHANNELS 3 Zrotation Yrotation Xrotation
		JOINT RightLeg
		{
			OFFSET -0.038290 -0.382569 -0.008850
			CHANNELS 3 Zrotation Yrotation Xrotation
			JOINT RightFoot
			{
				OFFSET 0.015774 -0.398415 -0.042312
				CHANNELS 3 Zrotation Yrotation Xrotation
				JOINT RightToe
				{
					OFFSET -0.025372 -0.048144 0.123348
					CHANNELS 3 Zrotation Yrotation Xrotation
					End Site
					{
						OFFSET 0.000000 0.000000 0.000000
					}
				}
			}
		}
	}
	JOINT Spine
	{
		OFFSET -0.002533 0.108963 -0.026696
		CHANNELS 3 Zrotation Yrotation Xrotation
		JOINT Spine1
		{
			OFFSET 0.005487 0.135180 0.001092
			CHANNELS 3 Zrotation Yrotation Xrotation
			JOINT Spine2
			{
				OFFSET 0.001457 0.052922 0.025425
				CHANNELS 3 Zrotation Yrotation Xrotation
				JOINT Neck
				{
					OFFSET -0.002778 0.213870 -0.042857
					CHANNELS 3 Zrotation Yrotation Xrotation
					JOINT Head
					{
						OFFSET 0.005152 0.064970 0.051349
						CHANNELS 3 Zrotation Yrotation Xrotation
						End Site
						{
							OFFSET 0.000000 0.000000 0.000000
						}
					}
				}
				JOINT LeftShoulder
				{
					OFFSET 0.078845 0.121749 -0.034090
					CHANNELS 3 Zrotation Yrotation Xrotation
					JOINT LeftArm
					{
						OFFSET 0.090977 0.030469 -0.008868
						CHANNELS 3 Zrotation Yrotation Xrotation
						JOINT LeftForeArm
						{
							OFFSET 0.259612 -0.012772 -0.027456
							CHANNELS 3 Zrotation Yrotation Xrotation
							JOINT LeftHand
							{
								OFFSET 0.249234 0.008986 -0.001171
								CHANNELS 3 Zrotation Yrotation Xrotation
								End Site
								{
									OFFSET 0.000000 0.000000 0.000000
								}
							}
						}
					}
				}
				JOINT RightShoulder
				{
					OFFSET -0.081759 0.118833 -0.038615
					CHANNELS 3 Zrotation Yrotation Xrotation
					JOINT RightArm
					{
						OFFSET -0.096012 0.032551 -0.009143
						CHANNELS 3 Zrotation Yrotation Xrotation
						JOINT RightForeArm
						{
							OFFSET -0.253742 -0.013329 -0.021401
							CHANNELS 3 Zrotation Yrotation Xrotation
							JOINT RightHand
							{
								OFFSET -0.255298 0.007772 -0.005559
								CHANNELS 3 Zrotation Yrotation Xrotation
								End Site
								{
									OFFSET 0.000000 0.000000 0.000000
								}
							}
						}
					}
				}
			}
		}
	}
}
MOTION
Frames: 15
Frame Time: 0.050000
0.000000 0.960935 0.000000 -0.624887 -2.516901 4.977569 6.154214 -0.489444 -10.703483 0.767382 -0.337546 6.656123 -0.427866 9.465517 36.465762 0.000000 0.000000 0.000000 -5.601268 0.967186 -13.984035 -1.928824 0.359613 2.850817 1.995303 -8.262250 33.380587 0.000000 0.000000 0.000000 5.998166 -0.896401 8.187882 -3.219151 1.385305 -10.417166 -0.113119 3.379563 16.207745 5.617312 -1.312333 -24.631603 0.000000 0.000000 0.000000 -11.115133 -9.355773 3.262855 -60.469971 -1.104272 -8.036417 -118.075306 -39.145065 67.360316 0.000000 0.000000 0.000000 10.873071 4.722418 1.715244 62.258593 7.235507 -3.478484 116.635256 39.710488 66.932438 0.000000 0.000000 0.000000 
0.027036 0.959188 -0.004572 -1.911547 -3.865074 5.185164 6.055021 -0.447192 -9.987936 0.064875 -0.200859 6.493404 0.623832 9.085937 29.740379 0.000000 0.000000 0.000000 -5.978805 0.984803 -14.160492 -1.306783 0.296479 3.139213 2.353301 -7.395562 30.488130 0.000000 0.000000 0.000000 7.465138 -1.029130 8.195847 -4.760261 1.912097 -10.555881 0.739874 4.507121 15.524861 7.385951 -2.264824 -24.321923 0.000000 0.000000 0.000000 -11.279939 -8.901286 2.996920 -60.316750 0.653692 -8.834201 -122.771520 -38.441629 71.296163 0.000000 0.000000 0.000000 10.116983 3.164062 1.022279 63.648105 5.715887 -4.226310 123.225611 38.150100 72.153330 0.000000 0.000000 0.000000 
0.055319 0.956765 -0.009755 -1.982933 -5.114481 4.318511 4.922561 -0.425046 -8.076288 -0.220255 -0.125384 5.793786 -1.197536 5.364670 24.114002 0.000000 0.000000 0.000000 -6.509103 0.993931 -14.684695 -2.339770 0.533978 4.773415 1.408828 -8.741815 29.662721 0.000000 0.000000 0.000000 7.345705 -0.848660 6.822183 -3.692732 1.546384 -8.026678 -0.619759 5.713205 14.373713 7.487592 -2.501941 -22.086835 0.000000 0.000000 0.000000 -9.241262 -8.180361 2.569793 -59.949242 0.364319 -8.596988 -121.869631 -38.713021 69.822107 0.000000 0.000000 0.000000 11.213636 4.368832 1.641779 62.549295 4.553275 -4.671462 125.469839 40.339298 78.455649 0.000000 0.000000 0.000000 
0.082885 0.956187 -0.015190 -1.840030 -5.611524 3.388936 2.589252 -0.469961 -6.621339 0.218868 -0.196040 5.744521 -0.653887 4.691550 18.758799 0.000000 0.000000 0.000000 -8.710563 0.810493 -14.413259 -2.136502 0.594089 6.082891 2.101601 -7.292082 27.375563 0.000000 0.000000 0.000000 6.660703 -0.758983 6.669523 -3.279128 1.413180 -6.251829 -0.462976 5.038426 13.939512 5.889646 -1.964722 -19.789411 0.000000 0.000000 0.000000 -8.947478 -7.854547 2.541942 -61.266739 2.955069 -10.033806 -125.277755 -38.643760 74.434257 0.000000 0.000000 0.000000 9.172536 4.515880 1.575087 64.762229 3.851729 -5.148664 127.782314 42.048256 83.407673 0.000000 0.000000 0.000000 
0.106777 0.959370 -0.019997 -1.639831 -5.078184 2.696941 0.775078 -0.465779 -5.431574 0.260380 -0.159221 4.066679 -0.881563 4.556003 19.139287 0.000000 0.000000 0.000000 -9.743621 0.710724 -14.876587 -1.223343 0.601852 8.503867 -0.275105 -10.234618 26.286952 0.000000 0.000000 0.000000 6.062412 -0.693918 6.540384 -2.498370 1.127033 -4.252064 -0.522463 4.023920 12.187670 4.880078 -1.597486 -18.112549 0.000000 0.000000 0.000000 -8.011256 -6.914421 2.195765 -62.506531 5.883434 -11.565146 -125.460304 -37.887347 73.537073 0.000000 0.000000 0.000000 7.984857 4.492381 1.466738 64.594645 2.321715 -5.816927 128.174603 41.800824 82.450475 0.000000 0.000000 0.000000 
0.125254 0.964077 -0.023524 -1.695515 -5.732143 2.368261 -0.354345 -0.444428 -4.711046 -0.011140 -0.088856 3.101576 -0.451673 5.291802 20.022207 0.000000 0.000000 0.000000 -9.567156 0.788533 -16.303243 0.432221 0.529875 12.540601 -2.281116 -12.382725 22.042510 0.000000 0.000000 0.000000 5.404622 -0.625478 6.364488 -2.007211 0.909516 -3.976967 -0.884524 4.197332 12.505831 4.486596 -1.361990 -18.234972 0.000000 0.000000 0.000000 -6.268683 -5.947925 1.861543 -63.450006 8.971963 -13.439987 -127.860546 -36.992446 75.344212 0.000000 0.000000 0.000000 6.614857 4.484126 1.472390 65.361883 0.768747 -6.775676 129.517643 40.651572 82.424798 0.000000 0.000000 0.000000 
0.139728 0.967893 -0.026157 -2.307643 -7.352190 2.235369 -1.122020 -0.401908 -3.990459 0.285204 -0.119904 2.801706 0.842849 6.617337 18.877560 0.000000 0.000000 0.000000 -7.391484 1.087710 -16.988207 1.120055 0.549331 14.825770 -1.902149 -11.079853 17.457650 0.000000 0.000000 0.000000 5.977728 -0.621587 6.000018 -2.752671 1.259302 -2.225246 -1.187077 4.919200 10.462664 4.841943 -1.937005 -14.973751 0.000000 0.000000 0.000000 -3.618359 -4.553027 1.389599 -65.718041 12.304569 -15.656851 -129.188004 -35.359517 74.000085 0.000000 0.000000 0.000000 6.119162 4.513986 1.459186 65.670603 -0.493926 -7.294728 131.487809 39.808942 83.210974 0.000000 0.000000 0.000000 
0.152021 0.970402 -0.028187 -2.407183 -7.743263 1.839113 -2.137373 -0.320147 -2.943934 -0.078712 -0.041612 1.876949 2.432846 8.763766 18.208194 0.000000 0.000000 0.000000 -6.058293 1.245661 -17.289781 0.966738 0.684055 16.296399 -1.246298 -9.805172 16.536108 0.000000 0.000000 0.000000 6.078482 -0.629311 6.121004 -2.883591 1.332682 -1.702421 -2.335660 5.316506 9.960290 4.949225 -2.268278 -12.568063 0.000000 0.000000 0.000000 -2.037493 -4.697160 1.491156 -67.286891 13.462752 -16.821493 -128.557532 -34.697991 71.704038 0.000000 0.000000 0.000000 6.592645 4.795359 1.600391 65.035775 -0.746178 -7.286573 132.671032 38.413734 82.888950 0.000000 0.000000 0.000000 
0.163370 0.970822 -0.029982 -2.061499 -7.743692 1.130348 -3.217235 -0.185388 -1.615015 -0.277033 0.025302 0.358988 2.626590 9.145800 18.757907 0.000000 0.000000 0.000000 -5.437434 1.264018 -16.812391 -0.360963 0.922879 15.215487 -0.608946 -9.256002 18.263071 0.000000 0.000000 0.000000 5.922601 -0.631043 6.408814 -3.687929 1.736596 -0.992130 -2.404179 4.319594 9.211920 4.252236 -2.137564 -10.440202 0.000000 0.000000 0.000000 -1.813147 -4.096272 1.312745 -67.220147 13.957076 -16.858321 -129.139915 -34.315363 72.310327 0.000000 0.000000 0.000000 6.663723 4.961148 1.567975 63.851672 -1.477340 -7.573559 132.722716 36.555962 78.678955 0.000000 0.000000 0.000000 
0.173997 0.969888 -0.032279 -1.843664 -7.797984 0.499402 -4.374178 -0.122887 -1.038367 -0.162771 0.015194 0.200119 3.171670 9.873437 18.326989 0.000000 0.000000 0.000000 -4.925921 1.315065 -16.876186 -0.939888 1.019832 14.713392 -0.238019 -8.568838 17.924402 0.000000 0.000000 0.000000 5.648585 -0.610443 6.504910 -3.676554 1.761539 -0.302305 -2.913050 4.089191 9.061536 3.931944 -2.222934 -8.005096 0.000000 0.000000 0.000000 -1.633932 -4.717862 1.544814 -67.180720 14.182275 -16.945868 -131.112361 -36.190221 78.178797 0.000000 0.000000 0.000000 6.406190 4.540803 1.387471 63.254675 -2.418719 -8.006252 131.696143 36.177052 76.388311 0.000000 0.000000 0.000000 
0.183041 0.967789 -0.035170 -1.879163 -7.948362 -0.144606 -4.963839 -0.050122 -0.452845 -0.057580 0.012897 -0.172577 3.328365 10.077576 18.249427 0.000000 0.000000 0.000000 -4.876837 1.340810 -17.155910 -0.997201 1.046916 14.840303 -0.026268 -7.931222 16.938410 0.000000 0.000000 0.000000 5.450661 -0.629923 7.045142 -3.389025 1.628734 -0.200659 -3.347362 3.888232 9.552000 4.257158 -2.524421 -7.741322 0.000000 0.000000 0.000000 -2.160562 -5.058726 1.659489 -66.254784 13.451639 -16.280245 -130.266411 -38.916108 81.671545 0.000000 0.000000 0.000000 6.160236 4.132184 1.214670 62.119920 -2.682942 -8.066662 130.137103 36.456756 74.605786 0.000000 0.000000 0.000000 
0.189555 0.968406 -0.038290 -2.330865 -7.033126 -0.568775 -5.119791 -0.005108 -0.143254 -0.200839 0.024424 0.026870 3.922341 10.971626 17.311900 0.000000 0.000000 0.000000 -5.230142 1.302612 -17.561347 -0.255990 0.933166 15.990663 -0.048210 -7.878306 17.225017 0.000000 0.000000 0.000000 5.005399 -0.618346 7.285930 -2.922501 1.393019 -0.595021 -3.150266 2.912985 11.259281 4.164349 -2.397543 -8.923322 0.000000 0.000000 0.000000 -3.006796 -5.431865 1.816956 -64.956682 12.202130 -15.301569 -130.196265 -40.944238 85.554658 0.000000 0.000000 0.000000 5.195356 3.151857 0.837060 62.048804 -3.616697 -8.768469 129.128241 35.535487 71.530781 0.000000 0.000000 0.000000 
0.193213 0.971481 -0.040690 -3.130158 -6.617264 -0.838967 -4.870609 0.018887 0.041650 0.310554 -0.025796 -0.351022 4.275372 11.738380 18.859783 0.000000 0.000000 0.000000 -4.229709 1.492565 -18.614265 0.243366 0.957183 18.402880 0.007183 -7.716576 17.324800 0.000000 0.000000 0.000000 5.036350 -0.637159 7.522652 -2.323335 1.100325 -0.948510 -3.424085 2.220786 12.235297 4.163395 -2.307864 -10.234454 0.000000 0.000000 0.000000 -2.487980 -5.598258 1.913681 -65.329679 12.458309 -15.564004 -128.889683 -41.708691 85.478473 0.000000 0.000000 0.000000 4.044741 2.426070 0.598594 62.254947 -4.861524 -9.596613 129.097755 34.535146 69.556338 0.000000 0.000000 0.000000 
0.194800 0.974979 -0.042167 -3.779500 -6.279225 -0.559657 -3.968408 -0.012141 -0.188036 0.274018 -0.014742 -0.539022 3.251410 10.441184 19.666438 0.000000 0.000000 0.000000 -3.259157 1.637707 -18.919210 -0.303386 1.225994 20.346165 -0.113460 -7.107881 15.000324 0.000000 0.000000 0.000000 5.216059 -0.626289 7.141532 -1.603713 0.746562 -2.240638 -4.017856 1.879526 13.582121 5.038918 -3.027680 -10.025455 0.000000 0.000000 0.000000 -2.277748 -5.416403 1.867031 -64.813966 13.250214 -15.947854 -127.635574 -41.281943 83.540031 0.000000 0.000000 0.000000 3.307770 2.246001 0.577808 62.607026 -7.312877 -11.108096 130.163667 32.317778 67.130904 0.000000 0.000000 0.000000 
0.194791 0.976997 -0.042840 -4.303086 -5.783086 -0.071206 -3.155637 -0.123033 -1.125328 0.068223 0.002001 -0.308543 2.896291 10.236434 21.122114 0.000000 0.000000 0.000000 -2.078845 1.774600 -18.858618 -2.473065 1.837087 20.558628 0.791076 -5.734049 15.862964 0.000000 0.000000 0.000000 5.591972 -0.615449 6.594401 -2.193330 1.015562 -2.594198 -3.875528 1.442681 14.161794 5.269982 -3.091231 -11.217962 0.000000 0.000000 0.000000 -2.702630 -5.627110 1.961397 -63.918297 12.995178 -15.593028 -126.286037 -40.529464 80.895445 0.000000 0.000000 0.000000 2.897405 1.112187 0.178692 62.736864 -10.208165 -12.739276 131.338009 29.496529 63.219681 0.000000 0.000000 0.000000 
